<?xml version="1.0" encoding="utf-8"?>
<!-- Generator: Adobe Illustrator 26.3.1, SVG Export Plug-In . SVG Version: 6.00 Build 0)  -->
<svg version="1.1" id="Layer_1" xmlns="http://www.w3.org/2000/svg" xmlns:xlink="http://www.w3.org/1999/xlink" x="0px" y="0px"
	 viewBox="0 0 1000 1000" style="enable-background:new 0 0 1000 1000;" xml:space="preserve">
<style type="text/css">
	.st0{fill:#1A1A1A;}
</style>
<g>
	<g>
		<g>
			<path class="st0" d="M302.5,559.2c-4.4-1.9-8.9-3.6-13.2-5.7c-4.3-2.1-8.8-4.1-13.2-6.2c-7.8-3.7-15.7-7.3-23.6-10.7
				c-7.4-3.2-14.5-7.1-21.9-10c-4.1-1.5-8.5-2.7-12.6-4.4c-2.4-1-4.8-2.1-7.1-3.2c-2.3-1.2-5.8-2.4-7.4-4.1
				c-4.1-4.7-5.5-12.9-1.4-18c3.4-4.3,9.9-7.8,14.5-11c6.2-4.4,12.4-8.8,18.6-13.3c13.2-9.5,26.5-18.9,39.7-28.4
				c2.8-2.2,5.7-4.3,8.7-6.2c4.5-2.6,7.8-9,7.8-9c4.3-9.5-6.1-17.5-6.1-17.5c-13-8.9-27-16.5-40.6-24.3
				c-21.5-12.4-43.1-24.6-64.8-36.7c-13.7-7.6-27.6-15.1-41.3-22.7c-3.1-2.1-6.4-3.9-9.9-5.3c-6.2-1.3-12.7,0.4-17.4,4.6
				c-2.5,2.9-3.8,6.8-3.4,10.6c0,0.8,0.3,1.6,0.3,2.4l16.8,322.3c1.7,16.9,16.1,14.5,16.1,14.5c4.9,0.4,11.4-4,15.6-6
				c10.3-4.9,20.5-10.3,30.6-15.7c12.8-6.8,25.5-13.8,38.1-20.9c12.6-7.1,25.5-14.3,38.2-21.6c11.5-6.6,23-13.2,34.5-19.9
				c2-1.1,3.9-2.5,5.9-3.5c2.8-0.9,5.3-2.6,7.3-4.7c5.8-7.4,5.6-17.6-2.8-22.5C306.6,561,304.6,560,302.5,559.2z M150.4,488.5
				c0-0.6,0-1.1-0.2-1.6c-0.4-2.4-0.7-4.7-1-7.1c-0.4-3.6-0.6-7.1-0.7-10.7c-0.4-8.3-1.3-16.5-2.1-24.8c-1.2-15.6-2.4-31.1-3.6-46.7
				c-0.5-3.3-0.8-6.6-0.8-10c0,0,1.2-18.3,19.4-11.1c18.3,9.3,82.6,44.8,82.6,44.8s12.9,11,0,20.8L223.4,458
				c-12.6,9.6-25.1,19.2-37.7,28.7c-2.7,2.1-5.3,4.1-7.9,6.2l-4.6,3.5c-1.7,1.3-4.1,3.8-6,4.4c-1.1,0.2-2.3,0.2-3.5,0.2
				c-4.9,0.8-9.8-1.6-12.3-5.9C150.7,493.1,150.3,490.8,150.4,488.5z M251.8,590L173,637.3c-15.1,4.9-16.7-9.9-16.7-9.9
				c0-8.3,0-16.5,0-24.8c0-13.9-0.3-27.9,0-41.8c0-3.4-0.5-6.9-0.3-10.3c0.1-2.1,0.7-4.1,1.6-6c0.9-2.1,2.2-4,3.9-5.5
				c2.6-1.5,5.6-2.1,8.6-1.8c2.9,0.7,5.7,1.7,8.3,3.1l9.5,3.8c13.3,5.4,26.7,10.7,40,16.1c3.8,1.5,7.7,3.1,11.5,4.5
				c6,2.3,12.6,3.3,16.9,8.7c3.6,4.5,2.5,10.3-1.2,14.5C254.1,588.6,253,589.4,251.8,590z"/>
			<path class="st0" d="M533.2,479.2c-8.3-9.8-82.2-93.9-102.5-115.5c-3-5.1-8.6-8-14.5-7.7c-4.9,0.3-9.5,2.4-13,5.8
				c0,0-86.8,121.9-93,128.8c-3.6,3.6-5.2,8.6-4.4,13.6c0.4,10.3,6.6,13.7,6.6,13.7l92.1,93.6c-7,7.2-9.5,9.2-14,13.4
				c-2.3,2.1-2.4,5.7-0.3,7.9c0.7,0.7,1.5,1.2,2.4,1.5l27.9,8.5c0,0-2.9,3.3,6.2-7.6l12.8,2.9c3.1,0.7,6.4-0.4,8.5-2.8l13.5-15.9
				c-1.1,0.2-5.5,1.7-14.8-7.9c35.3-41.9,82.1-109.5,84.8-111.8c2.4-2,3.9-4.9,4.1-8C536.7,488.9,533.2,479.2,533.2,479.2z
				 M486.1,501.2c-1.7,2.5-3.1,5.3-4.7,7.9c-13.1,22-24.9,45.1-39.6,66.1c-5,7.1-14.8,8.9-21.9,3.9c-1.1-0.7-2-1.6-2.9-2.6
				c-2.8-3.1-5.4-6.3-7.8-9.5c-9.3-11.8-18.4-23.8-27.7-35.6c-6.5-8.3-12.7-17.1-20.1-24.6c-2-2-3.5-4.4-4.3-7.1
				c-0.9-3.5-0.6-7.3,1-10.6c5.2-11,31.7-66.8,39.7-78c3.8-5.6,10.5-8.4,17.2-7.4c3.7,0.4,7.2,2.2,9.7,5c11.8,13,54.5,60.2,61,70.2
				C490.1,485.7,490.3,494.4,486.1,501.2z"/>
			<path class="st0" d="M709,552.9c0,0-74.6-18.8-82-25.6c-7.4-6.8,0.2-16.8,0.2-16.8l54.4-45.6c20.1-14.6,1.9-25.9,1.9-25.9
				s-86.3-63-97.6-73.1c-11.2-10.2-19.3-7.4-19.3-7.4c-19.2,1-20,16.4-20,16.4l14.5,256.4c5.3,14.5,12.9,8.4,26.7,8.5
				c20.7-6,15.2-15.7,15.2-15.7s-15.8-63.1-17.5-68.1c-1.7-5-0.6-6.7-0.6-6.7c7.4-13.4,21-4.5,21-4.5l72.3,31.4
				c18,11.3,26.4-2.6,26.4-2.6C719.5,562.1,709,552.9,709,552.9z M598.3,501.8c0,0-15,6.5-19.2-7.8l-3.5-79.9
				c0,0,0.5-11.7,11.7-11.7c0,0,5.8-1.6,11.7,4.6c5.8,6.2,48.9,37,48.9,37s6.3,2.4,6.7,8.1c0,0,1.8,4.2-6.2,9.2
				C640.4,466.3,598.3,501.8,598.3,501.8L598.3,501.8z"/>
			<path class="st0" d="M744.5,628.2l-13.3-250.5c0,0,2.1-24.6,24.8-16c21.3,20.9,42.1,42.4,63.7,63c6.9,6.5,18.8,14.6,20.5,24.7
				c2.1,12.1-12.4,20.7-19.5,28.3c-9.3,9.9-21.7,24.3-26,37.4c-3.9,11.9,73.1,19.5,92.6,37.3c0,0,10.6,10,0.7,20.3
				c0,0-10.7,18.6-23.3,3.9c0,0-83.2-38.8-86.6-41.9s-13.5-12.8-1.1-26.9c12.4-14,37.7-48.4,37.2-55.6c-1.3-3.2-3.2-6.1-5.6-8.6
				c-3.4-3.1-36.5-37.9-36.5-37.9s-7.5-5.7-11.6-1.3c0,0-7.5,1.9-3.7,13.5l20.9,207.9c-0.9,7.8-7.8,13.6-15.6,13.2
				C762.2,638.8,745.3,643.3,744.5,628.2z"/>
		</g>
	</g>
</g>
</svg>
