<?xml version="1.0" encoding="UTF-8"?><svg id="Layer_1" xmlns="http://www.w3.org/2000/svg" viewBox="0 0 418.6 421.09"><defs><style>.cls-1{letter-spacing:-.01em;}.cls-2{font-family:Seravek-Bold, Seravek;font-size:45.99px;}.cls-2,.cls-3{fill:#fff;}.cls-4{fill:#f2f2f2;}.cls-5{fill:#006641;}.cls-6{fill:#006743;}.cls-7{fill:#015434;}.cls-8{fill:#00845a;}.cls-9{letter-spacing:.01em;}.cls-10{letter-spacing:0em;}.cls-11{letter-spacing:-.01em;}</style></defs><g><g><path class="cls-4" d="M417.11,0c-158.89,28.69-204.63,2.35-207.72,.42v-.11s-.03,.02-.09,.06c-.05-.04-.09-.06-.09-.06V421.09s.06-.03,.09-.04c.03,.01,.06,.03,.09,.04v-.09C449.82,306.06,417.11,0,417.11,0Z"/><path class="cls-3" d="M1.5,0S-31.21,306.06,209.21,421V.42c-3.08,1.93-48.83,28.27-207.72-.42Z"/></g><g><path class="cls-8" d="M408.85,8.37c-152.57,27.55-196.5,2.26-199.46,.4V412.64C440.26,302.27,408.85,8.37,408.85,8.37Z"/><path class="cls-6" d="M209.39,8.66s-.03,.02-.09,.06c-.05-.03-.09-.06-.09-.06v.11c-2.96,1.85-46.89,27.15-199.46-.4,0,0-31.41,293.9,199.46,404.27v.08s.06-.03,.09-.04c.03,.01,.06,.03,.09,.04V8.66Z"/></g><g><path class="cls-5" d="M405.51,11.75c-150.02,27.09-193.21,2.22-196.12,.39V409.26C436.39,300.73,405.51,11.75,405.51,11.75Z"/><path class="cls-8" d="M209.39,12.04s-.03,.02-.08,.05c-.05-.03-.08-.05-.08-.05v.11c-2.91,1.82-46.11,26.69-196.12-.39,0,0-30.88,288.98,196.12,397.51v.08s.06-.03,.08-.04c.03,.01,.06,.03,.08,.04V12.04Z"/></g></g><text class="cls-2" transform="translate(87.3 85.7)"><tspan x="0" y="0">DE</tspan><tspan class="cls-10" x="56.29" y="0">P</tspan><tspan x="82.46" y="0">O</tspan><tspan class="cls-11" x="116.85" y="0">R</tspan><tspan x="145.55" y="0">TI</tspan><tspan class="cls-1" x="184.82" y="0">V</tspan><tspan x="213.52" y="0">O</tspan><tspan x="41.04" y="55.19">TRI</tspan><tspan class="cls-9" x="109.7" y="55.19">P</tspan><tspan x="135.87" y="55.19">OLI</tspan></text><g><ellipse class="cls-7" cx="209.65" cy="210.16" rx="27.82" ry="27.75"/><path class="cls-3" d="M211.13,217.02c-1.83,1.97-3.62,3.91-5.44,5.81-.51,.54-1.12,.98-1.7,1.44-.13,.11-.36,.17-.52,.14-1.55-.28-3.16-.43-4.64-.93-1.91-.64-3.72-1.56-5.56-2.4-.29-.13-.53-.49-.66-.79-.88-1.96-1.76-3.94-2.07-6.08-.21-1.45-.34-2.93-.29-4.39,.02-.54,.56-1.11,.96-1.59,1.21-1.43,2.42-2.87,3.72-4.22,.74-.78,1.6-1.47,2.49-2.08,.31-.21,.91-.13,1.33,0,2.92,.9,5.82,1.85,8.72,2.79,.3,.1,.44,.25,.5,.62,.24,1.67,.41,3.37,.86,4.99,.57,2.04,1.38,4.02,2.08,6.02,.08,.22,.15,.43,.24,.68Z"/><path class="cls-3" d="M229.76,211.35c-.15,.27-.34,.72-.64,1.09-1.9,2.4-4,4.63-6.23,6.74-.15,.15-.47,.24-.68,.19-3.14-.64-6.24-1.43-9.24-2.55-.29-.11-.62-.38-.74-.66-1.1-2.56-2.01-5.19-2.45-7.95-.18-1.1-.35-2.19-.48-3.3-.02-.21,.13-.49,.29-.66,1.46-1.65,2.91-3.31,4.41-4.92,.6-.65,1.32-1.18,2-1.75,.13-.11,.33-.19,.49-.18,2.71,.16,5.28,.86,7.73,2.04,.81,.39,1.65,.72,2.46,1.11,.22,.11,.46,.33,.55,.56,1.01,2.46,2.02,4.92,2.22,7.62,.06,.8,.18,1.59,.31,2.62Z"/><path class="cls-3" d="M211.45,188.11c1.64-1.58,3.37-3.02,5.39-4.08,.62-.32,1.2-.36,1.9-.15,2.71,.86,5.19,2.17,7.44,3.88,1.13,.86,2.27,1.76,3.17,2.83,.59,.69,.82,1.72,1.1,2.62,.22,.69,.34,1.44,.37,2.16,.02,.35-.19,.78-.43,1.07-.74,.9-1.55,1.75-2.33,2.62-.39,.43-.75,.43-1.28,.12-2.09-1.18-4.3-2.08-6.66-2.58-1.09-.23-2.2-.34-3.3-.54-.15-.03-.32-.17-.41-.31-1.65-2.53-3.29-5.07-4.96-7.65Z"/><path class="cls-3" d="M188.42,208.28c-1.09-.27-2.18-.52-3.25-.81-.37-.1-.57-.35-.66-.79-.31-1.6-.72-3.18-1.05-4.78-.06-.28,.04-.61,.13-.9,.73-2.48,1.96-4.74,3.46-6.8,.61-.83,1.61-1.39,2.48-2.01,1.22-.87,2.48-1.67,3.71-2.51,.35-.24,.68-.36,1.08-.15,1.12,.57,2.26,1.12,3.38,1.71,.15,.08,.27,.4,.24,.59-.31,2.04-.66,4.08-.97,6.12-.12,.79-.16,1.6-.26,2.39-.02,.15-.13,.32-.25,.42-1.02,.91-2.13,1.73-3.05,2.72-1.22,1.31-2.33,2.72-3.4,4.15-.45,.6-.66,.55-1.2,.6-.02,.06-.37-.01-.39,.04Z"/><path class="cls-3" d="M192.16,222.4c1.83,.75,3.49,1.56,5.24,2.11,1.54,.49,3.17,.71,4.78,.99,.73,.13,1.21,.3,1.49,1.12,.62,1.78,1.64,3.38,2.89,4.8,.44,.5,.88,1.01,1.32,1.5-.9,1.31-1.82,2.63-2.72,3.97-.29,.43-.56,.55-1.13,.44-2.51-.5-4.88-1.39-7.13-2.59-2.61-1.4-5.1-2.99-7.05-5.26-.46-.53-.55-1.39-.78-2.1-.11-.33-.18-.68-.23-1.02-.02-.14,.04-.33,.14-.44,1.07-1.2,2.16-2.39,3.18-3.52Z"/><path class="cls-3" d="M236.47,217.75c-.29,.79-.6,1.67-.94,2.54-1.1,2.8-2.57,5.39-4.47,7.71-.82,.99-1.8,1.86-2.74,2.74-.17,.15-.54,.19-.79,.13-1.68-.37-3.35-.8-5.03-1.15-.46-.1-.53-.31-.47-.66,.34-2.04,.7-4.07,1.02-6.11,.12-.74,.12-1.5,.2-2.24,.1-.82,.82-1.17,1.31-1.68,.71-.75,1.46-1.46,2.18-2.2,.63-.65,1.25-1.31,1.85-2,.58-.66,1.12-1.35,1.67-2.04,.21-.27,.42-.4,.8-.33,1.36,.27,2.7,.59,3.92,1.28,.11,.06,.27,.12,.3,.22,.4,1.21,.78,2.42,1.17,3.63,0,.02,0,.04,.01,.16Z"/><path class="cls-3" d="M216.48,183.37c-.64,.34-1.32,.64-1.93,1.04-1.08,.71-2.21,1.38-3.13,2.27-.9,.87-1.87,1.2-3.05,1.27-2.8,.17-5.46,.89-8.01,2.05-.31,.14-.61,.3-.93,.39-.17,.05-.39,.03-.55-.05-1.28-.6-2.56-1.22-3.82-1.86-.16-.08-.3-.29-.35-.47-.31-1.06-.29-1.05,.58-1.65,2.74-1.87,5.84-2.82,9.05-3.48,1.97-.4,3.98-.67,5.98-.5,2.06,.17,4.1,.51,6.15,.78,0,.07,0,.14,0,.21Z"/><path class="cls-3" d="M227.07,231.83c-6.06,5.01-12.98,6.64-20.71,5.94,.91-1.39,1.78-2.69,2.62-4.01,.33-.51,.69-.72,1.34-.76,2.31-.17,4.61-.42,6.81-1.2,1.17-.41,2.31-.89,3.51-1.18,.63-.15,1.36-.02,2.02,.11,1.34,.25,2.66,.59,3.98,.9,.12,.03,.22,.11,.41,.2Z"/><path class="cls-3" d="M182.62,204.08c.28,1.23,.6,2.44,.81,3.66,.06,.38-.19,.8-.28,1.21-.3,1.46-.59,2.91-.9,4.48-.61-3.2-.6-6.29,.37-9.35Z"/><path class="cls-3" d="M236.78,215.84c-.28-.82-.62-1.62-.8-2.46-.08-.37,.16-.82,.28-1.23,.33-1.12,.67-2.23,1.04-3.47,.31,2.51,.1,4.84-.52,7.16Z"/><path class="cls-3" d="M230.82,192.41c1.78,2.18,3.39,4.38,4.49,7.12-.86-.74-1.6-1.37-2.33-2-.41-.36-.85-.7-1.21-1.11-.18-.21-.2-.56-.27-.85-.23-1.02-.45-2.05-.69-3.15Z"/><path class="cls-3" d="M188.11,227.66c-2.67-3.07-4.24-6.67-5.33-10.51,.26,.56,.53,1.11,.79,1.67,1.05,2.33,2.42,4.46,3.93,6.51,.35,.47,.36,1.2,.52,1.81,.05,.17,.06,.35,.09,.52Z"/></g><g><g><rect class="cls-3" x="282.33" y="301.29" width="12.91" height="3.15" rx="1.01" ry="1.01" transform="translate(-81.37 498.08) rotate(-74.17)"/><rect class="cls-3" x="278.6" y="298.29" width="12.6" height="3.08" rx=".99" ry=".99" transform="translate(-74.81 503.97) rotate(-76.04)"/><rect class="cls-3" x="274.76" y="295.58" width="12.31" height="3.01" rx=".97" ry=".97" transform="translate(-69.23 508.22) rotate(-77.69)"/><rect class="cls-3" x="270.83" y="293.14" width="12.03" height="2.94" rx=".95" ry=".95" transform="translate(-64.98 510.47) rotate(-79.05)"/><rect class="cls-3" x="266.79" y="290.93" width="11.76" height="2.87" rx=".92" ry=".92" transform="translate(-62.39 510.47) rotate(-80.06)"/><rect class="cls-3" x="262.65" y="288.92" width="11.51" height="2.81" rx=".9" ry=".9" transform="translate(-61.67 508.02) rotate(-80.65)"/><rect class="cls-3" x="258.4" y="287.08" width="11.27" height="2.75" rx=".89" ry=".89" transform="translate(-62.92 503) rotate(-80.8)"/><rect class="cls-3" x="254.03" y="285.38" width="11.04" height="2.7" rx=".87" ry=".87" transform="translate(-66.11 495.35) rotate(-80.49)"/></g><g><path class="cls-3" d="M255.6,267.69c-2.83-.14-5.25,2.23-5.39,5.29-.02,.5,.02,.98,.11,1.45l-1.58,4.83c-75.43-23.25-101.22-62.17-105.92-70-11.77-5.28-27.37-25.23-27.37-25.23,2.98,63.23,117.05,99.85,130.43,103.93l-1.69,5.16c-.29,.64-.46,1.36-.5,2.11-.15,3.06,2.03,5.65,4.86,5.78,2.83,.14,5.25-2.23,5.39-5.29,.02-.46-.01-.91-.09-1.34l6.35-19.4c.15-.47,.23-.94,.24-1.41,0-.03,0-.07,0-.1,.15-3.06-2.03-5.65-4.86-5.78Z"/><path class="cls-3" d="M301.71,299.68c-2.04-2.23-5.53-2.27-7.73-.24-.38,.35-.71,.75-.98,1.19-1.69,2.68-1.97,6.37-2.69,9.41-.66,2.76,1.51,4.88,4.07,3.36,.96-.57,1.78-1.36,2.6-2.11,1.05-.97,2.2-1.82,3.28-2.77,.64-.56,1.22-1.21,1.68-1.92,1.4-2.14,1.74-4.76-.23-6.92Z"/></g></g><g><g><rect class="cls-3" x="128.18" y="296.41" width="3.15" height="12.91" rx="1.01" ry="1.01" transform="translate(-77.7 46.88) rotate(-15.83)"/><rect class="cls-3" x="132.11" y="293.53" width="3.08" height="12.6" rx=".99" ry=".99" transform="translate(-68.39 41.1) rotate(-13.96)"/><rect class="cls-3" x="136.12" y="290.93" width="3.01" height="12.31" rx=".97" ry=".97" transform="translate(-60.17 36.17) rotate(-12.31)"/><rect class="cls-3" x="140.23" y="288.6" width="2.94" height="12.03" rx=".95" ry=".95" transform="translate(-53.37 32.27) rotate(-10.95)"/><rect class="cls-3" x="144.44" y="286.49" width="2.87" height="11.76" rx=".92" ry=".92" transform="translate(-48.29 29.58) rotate(-9.94)"/><rect class="cls-3" x="148.74" y="284.58" width="2.81" height="11.51" rx=".9" ry=".9" transform="translate(-45.16 28.24) rotate(-9.35)"/><rect class="cls-3" x="153.14" y="282.83" width="2.75" height="11.27" rx=".89" ry=".89" transform="translate(-44.11 28.4) rotate(-9.2)"/><rect class="cls-3" x="157.65" y="281.21" width="2.7" height="11.04" rx=".87" ry=".87" transform="translate(-45.17 30.2) rotate(-9.51)"/></g><g><path class="cls-3" d="M162.95,267.69c2.83-.14,5.25,2.23,5.39,5.29,.02,.5-.02,.98-.11,1.45l1.58,4.83c75.43-23.25,101.22-62.17,105.92-70,11.77-5.28,27.37-25.23,27.37-25.23-2.98,63.23-117.05,99.85-130.43,103.93l1.69,5.16c.29,.64,.46,1.36,.5,2.11,.15,3.06-2.03,5.65-4.86,5.78-2.83,.14-5.25-2.23-5.39-5.29-.02-.46,.01-.91,.09-1.34l-6.35-19.4c-.15-.47-.23-.94-.24-1.41,0-.03,0-.07,0-.1-.15-3.06,2.03-5.65,4.86-5.78Z"/><path class="cls-3" d="M116.83,299.68c2.04-2.23,5.53-2.27,7.73-.24,.38,.35,.71,.75,.98,1.19,1.69,2.68,1.97,6.37,2.69,9.41,.66,2.76-1.51,4.88-4.07,3.36-.96-.57-1.78-1.36-2.6-2.11-1.05-.97-2.2-1.82-3.28-2.77-.64-.56-1.22-1.21-1.68-1.92-1.4-2.14-1.74-4.76,.23-6.92Z"/></g></g></svg>